# xmcd CD database file generated by OrangeCD 6.0
#
# Track frame offsets:
#	225
#	25479
#	50101
#	78666
#	111776
#	129209
#	153482
#	172843
#	192467
#
# Disc length: 3092 seconds
#
# Revision: 1
# Processed by: cddbd v1.5.2PL0 Copyright (c) Steve Scherf et al.
# Submitted via: OrangeCD 6.0
#
DISCID=750c1109
DTITLE=Van Morrison - Live At Austin City Limits Festival
DYEAR=1900
DGENRE=Rock
TTITLE0=Real Real Gone-/ You Send Me
TTITLE1=Saint James Infirmary
TTITLE2=Moondance
TTITLE3=It's All In The Game-/ You Know What They're Writing About
TTITLE4=Precious Time
TTITLE5=Don't Start Crying Now-/ Custard Pie
TTITLE6=Wild Night
TTITLE7=Brown Eyed Girl
TTITLE8=Gloria
EXTD=
EXTT0=
EXTT1=
EXTT2=
EXTT3=
EXTT4=
EXTT5=
EXTT6=
EXTT7=
EXTT8=
PLAYORDER=
